<?xml version="1.0" encoding="UTF-8"?>
<svg id="_レイヤー_1" data-name="レイヤー 1" xmlns="http://www.w3.org/2000/svg" xmlns:xlink="http://www.w3.org/1999/xlink" viewBox="0 0 700 700">
  <defs>
    <style>
      .cls-1 {
        fill: url(#_名称未設定グラデーション_228);
      }
    </style>
    <linearGradient id="_名称未設定グラデーション_228" data-name="名称未設定グラデーション 228" x1="501.63" y1="612.63" x2="198.37" y2="87.37" gradientUnits="userSpaceOnUse">
      <stop offset="0" stop-color="#005eac"/>
      <stop offset=".5" stop-color="#18b7cd"/>
      <stop offset="1" stop-color="#84cabf"/>
    </linearGradient>
  </defs>
  <path class="cls-1" d="M352.27,222.65h-.04c-.25-2.28-2.16-4.07-4.51-4.07s-4.26,1.78-4.51,4.07h-.04c-13.62,65.81-57.36,109.56-123.17,123.17v.03c-2.33.2-4.16,2.14-4.16,4.52s1.83,4.32,4.16,4.52v.03c65.81,13.62,109.56,57.36,123.17,123.17h.03c.23,2.3,2.15,4.11,4.51,4.11s4.28-1.81,4.51-4.11h.04c13.62-65.81,57.36-109.56,123.17-123.17v-.04c2.3-.23,4.11-2.15,4.11-4.51s-1.8-4.28-4.11-4.51v-.03c-65.81-13.62-109.56-57.36-123.17-123.17ZM350,610c-53.85,0-97.5-43.65-97.5-97.5h-65c0,89.75,72.75,162.5,162.5,162.5s162.5-72.75,162.5-162.5h-65c0,53.85-43.65,97.5-97.5,97.5ZM25,350c0,89.75,72.75,162.5,162.5,162.5v-65c-53.85,0-97.5-43.65-97.5-97.5s43.65-97.5,97.5-97.5v-65c-89.75,0-162.5,72.75-162.5,162.5ZM350,25c-89.75,0-162.5,72.75-162.5,162.5h65c0-53.85,43.65-97.5,97.5-97.5s97.5,43.65,97.5,97.5h65c0-89.75-72.75-162.5-162.5-162.5ZM512.5,187.5v65c53.85,0,97.5,43.65,97.5,97.5s-43.65,97.5-97.5,97.5v65c89.75,0,162.5-72.75,162.5-162.5s-72.75-162.5-162.5-162.5Z"/>
</svg>